<?xml version="1.0" encoding="UTF-8"?>
<!--Generator: Apple Native CoreSVG 123-->
<!DOCTYPE svg
PUBLIC "-//W3C//DTD SVG 1.1//EN"
       "http://www.w3.org/Graphics/SVG/1.1/DTD/svg11.dtd">
<svg version="1.1" xmlns="http://www.w3.org/2000/svg" xmlns:xlink="http://www.w3.org/1999/xlink" width="3300" height="2200">
 <!--glyph: "uni100108.medium", point size: 100.000000, font version: "Version 15.0d7e11", template writer version: "5"-->
 <g id="Notes">
  <rect height="2200" id="artboard" style="fill:white;opacity:1" width="3300" x="0" y="0"/>
  <line id="" style="fill:none;stroke:black;opacity:1;stroke-width:0.5;" x1="263" x2="3036" y1="292" y2="292"/>
  <text style="stroke:none;fill:black;font-family:-apple-system,&quot;SF Pro Display&quot;,&quot;SF Pro Text&quot;,Helvetica,sans-serif;font-weight:bold;" transform="matrix(1 0 0 1 263 322)">Weight/Scale Variations</text>
  <text style="stroke:none;fill:black;font-family:-apple-system,&quot;SF Pro Display&quot;,&quot;SF Pro Text&quot;,Helvetica,sans-serif;text-anchor:middle;" transform="matrix(1 0 0 1 559.711 322)">Ultralight</text>
  <text style="stroke:none;fill:black;font-family:-apple-system,&quot;SF Pro Display&quot;,&quot;SF Pro Text&quot;,Helvetica,sans-serif;text-anchor:middle;" transform="matrix(1 0 0 1 856.422 322)">Thin</text>
  <text style="stroke:none;fill:black;font-family:-apple-system,&quot;SF Pro Display&quot;,&quot;SF Pro Text&quot;,Helvetica,sans-serif;text-anchor:middle;" transform="matrix(1 0 0 1 1153.13 322)">Light</text>
  <text style="stroke:none;fill:black;font-family:-apple-system,&quot;SF Pro Display&quot;,&quot;SF Pro Text&quot;,Helvetica,sans-serif;text-anchor:middle;" transform="matrix(1 0 0 1 1449.84 322)">Regular</text>
  <text style="stroke:none;fill:black;font-family:-apple-system,&quot;SF Pro Display&quot;,&quot;SF Pro Text&quot;,Helvetica,sans-serif;text-anchor:middle;" transform="matrix(1 0 0 1 1746.56 322)">Medium</text>
  <text style="stroke:none;fill:black;font-family:-apple-system,&quot;SF Pro Display&quot;,&quot;SF Pro Text&quot;,Helvetica,sans-serif;text-anchor:middle;" transform="matrix(1 0 0 1 2043.27 322)">Semibold</text>
  <text style="stroke:none;fill:black;font-family:-apple-system,&quot;SF Pro Display&quot;,&quot;SF Pro Text&quot;,Helvetica,sans-serif;text-anchor:middle;" transform="matrix(1 0 0 1 2339.98 322)">Bold</text>
  <text style="stroke:none;fill:black;font-family:-apple-system,&quot;SF Pro Display&quot;,&quot;SF Pro Text&quot;,Helvetica,sans-serif;text-anchor:middle;" transform="matrix(1 0 0 1 2636.69 322)">Heavy</text>
  <text style="stroke:none;fill:black;font-family:-apple-system,&quot;SF Pro Display&quot;,&quot;SF Pro Text&quot;,Helvetica,sans-serif;text-anchor:middle;" transform="matrix(1 0 0 1 2933.4 322)">Black</text>
  <line id="" style="fill:none;stroke:black;opacity:1;stroke-width:0.5;" x1="263" x2="3036" y1="1903" y2="1903"/>
  <g id="" transform="matrix(1 0 0 1 263 1933)">
   <path d="M 9.24805 0.830078 C 13.5547 0.830078 17.1387 -2.74414 17.1387 -7.05078 C 17.1387 -11.3574 13.5449 -14.9316 9.23828 -14.9316 C 4.94141 -14.9316 1.36719 -11.3574 1.36719 -7.05078 C 1.36719 -2.74414 4.95117 0.830078 9.24805 0.830078 Z M 9.24805 -0.654297 C 5.70312 -0.654297 2.87109 -3.49609 2.87109 -7.05078 C 2.87109 -10.6055 5.69336 -13.4473 9.23828 -13.4473 C 12.793 -13.4473 15.6348 -10.6055 15.6445 -7.05078 C 15.6543 -3.49609 12.8027 -0.654297 9.24805 -0.654297 Z M 9.22852 -3.42773 C 9.69727 -3.42773 9.9707 -3.74023 9.9707 -4.25781 L 9.9707 -6.31836 L 12.1973 -6.31836 C 12.6953 -6.31836 13.0371 -6.57227 13.0371 -7.04102 C 13.0371 -7.51953 12.7148 -7.7832 12.1973 -7.7832 L 9.9707 -7.7832 L 9.9707 -10.0098 C 9.9707 -10.5273 9.69727 -10.8496 9.22852 -10.8496 C 8.75977 -10.8496 8.50586 -10.5078 8.50586 -10.0098 L 8.50586 -7.7832 L 6.29883 -7.7832 C 5.78125 -7.7832 5.44922 -7.51953 5.44922 -7.04102 C 5.44922 -6.57227 5.80078 -6.31836 6.29883 -6.31836 L 8.50586 -6.31836 L 8.50586 -4.25781 C 8.50586 -3.75977 8.75977 -3.42773 9.22852 -3.42773 Z"/>
  </g>
  <g id="" transform="matrix(1 0 0 1 281.506 1933)">
   <path d="M 11.709 2.91016 C 17.1582 2.91016 21.6699 -1.60156 21.6699 -7.05078 C 21.6699 -12.4902 17.1484 -17.0117 11.6992 -17.0117 C 6.25977 -17.0117 1.74805 -12.4902 1.74805 -7.05078 C 1.74805 -1.60156 6.26953 2.91016 11.709 2.91016 Z M 11.709 1.25 C 7.09961 1.25 3.41797 -2.44141 3.41797 -7.05078 C 3.41797 -11.6504 7.08984 -15.3516 11.6992 -15.3516 C 16.3086 -15.3516 20 -11.6504 20.0098 -7.05078 C 20.0195 -2.44141 16.3184 1.25 11.709 1.25 Z M 11.6895 -2.41211 C 12.207 -2.41211 12.5195 -2.77344 12.5195 -3.33984 L 12.5195 -6.23047 L 15.5762 -6.23047 C 16.123 -6.23047 16.5039 -6.51367 16.5039 -7.03125 C 16.5039 -7.55859 16.1426 -7.86133 15.5762 -7.86133 L 12.5195 -7.86133 L 12.5195 -10.9277 C 12.5195 -11.5039 12.207 -11.8555 11.6895 -11.8555 C 11.1719 -11.8555 10.8789 -11.4844 10.8789 -10.9277 L 10.8789 -7.86133 L 7.83203 -7.86133 C 7.26562 -7.86133 6.89453 -7.55859 6.89453 -7.03125 C 6.89453 -6.51367 7.28516 -6.23047 7.83203 -6.23047 L 10.8789 -6.23047 L 10.8789 -3.33984 C 10.8789 -2.79297 11.1719 -2.41211 11.6895 -2.41211 Z"/>
  </g>
  <g id="" transform="matrix(1 0 0 1 304.924 1933)">
   <path d="M 14.9707 5.67383 C 21.9336 5.67383 27.6953 -0.078125 27.6953 -7.04102 C 27.6953 -14.0039 21.9238 -19.7559 14.9609 -19.7559 C 8.00781 -19.7559 2.25586 -14.0039 2.25586 -7.04102 C 2.25586 -0.078125 8.01758 5.67383 14.9707 5.67383 Z M 14.9707 3.85742 C 8.93555 3.85742 4.08203 -1.00586 4.08203 -7.04102 C 4.08203 -13.0762 8.92578 -17.9395 14.9609 -17.9395 C 21.0059 -17.9395 25.8594 -13.0762 25.8691 -7.04102 C 25.8789 -1.00586 21.0156 3.85742 14.9707 3.85742 Z M 14.9512 -1.06445 C 15.5176 -1.06445 15.8691 -1.45508 15.8691 -2.06055 L 15.8691 -6.13281 L 20.1074 -6.13281 C 20.6934 -6.13281 21.1133 -6.46484 21.1133 -7.02148 C 21.1133 -7.59766 20.7227 -7.93945 20.1074 -7.93945 L 15.8691 -7.93945 L 15.8691 -12.1875 C 15.8691 -12.8027 15.5176 -13.1934 14.9512 -13.1934 C 14.3848 -13.1934 14.0625 -12.7832 14.0625 -12.1875 L 14.0625 -7.93945 L 9.83398 -7.93945 C 9.21875 -7.93945 8.80859 -7.59766 8.80859 -7.02148 C 8.80859 -6.46484 9.23828 -6.13281 9.83398 -6.13281 L 14.0625 -6.13281 L 14.0625 -2.06055 C 14.0625 -1.47461 14.3848 -1.06445 14.9512 -1.06445 Z"/>
  </g>
  <text style="stroke:none;fill:black;font-family:-apple-system,&quot;SF Pro Display&quot;,&quot;SF Pro Text&quot;,Helvetica,sans-serif;font-weight:bold;" transform="matrix(1 0 0 1 263 1953)">Design Variations</text>
  <text style="stroke:none;fill:black;font-family:-apple-system,&quot;SF Pro Display&quot;,&quot;SF Pro Text&quot;,Helvetica,sans-serif;" transform="matrix(1 0 0 1 263 1971)">Symbols are supported in up to nine weights and three scales.</text>
  <text style="stroke:none;fill:black;font-family:-apple-system,&quot;SF Pro Display&quot;,&quot;SF Pro Text&quot;,Helvetica,sans-serif;" transform="matrix(1 0 0 1 263 1989)">For optimal layout with text and other symbols, vertically align</text>
  <text style="stroke:none;fill:black;font-family:-apple-system,&quot;SF Pro Display&quot;,&quot;SF Pro Text&quot;,Helvetica,sans-serif;" transform="matrix(1 0 0 1 263 2007)">symbols with the adjacent text.</text>
  <rect height="14" id="" style="fill:#00AEEF;stroke:none;opacity:0.4;" width="3" x="776" y="1919"/>
  <g id="" transform="matrix(1 0 0 1 779 1933)">
   <path d="M 10.5273 0 L 12.373 0 L 7.17773 -14.0918 L 5.43945 -14.0918 L 0.244141 0 L 2.08984 0 L 3.50586 -4.0332 L 9.11133 -4.0332 Z M 6.2793 -11.9531 L 6.33789 -11.9531 L 8.59375 -5.52734 L 4.02344 -5.52734 Z"/>
  </g>
  <rect height="14" id="" style="fill:#00AEEF;stroke:none;opacity:0.4;" width="3" x="791.617" y="1919"/>
  <text style="stroke:none;fill:black;font-family:-apple-system,&quot;SF Pro Display&quot;,&quot;SF Pro Text&quot;,Helvetica,sans-serif;font-weight:bold;" transform="matrix(1 0 0 1 776 1953)">Margins</text>
  <text style="stroke:none;fill:black;font-family:-apple-system,&quot;SF Pro Display&quot;,&quot;SF Pro Text&quot;,Helvetica,sans-serif;" transform="matrix(1 0 0 1 776 1971)">Leading and trailing margins on the left and right side of each symbol</text>
  <text style="stroke:none;fill:black;font-family:-apple-system,&quot;SF Pro Display&quot;,&quot;SF Pro Text&quot;,Helvetica,sans-serif;" transform="matrix(1 0 0 1 776 1989)">can be adjusted by modifying the width of the blue rectangles.</text>
  <text style="stroke:none;fill:black;font-family:-apple-system,&quot;SF Pro Display&quot;,&quot;SF Pro Text&quot;,Helvetica,sans-serif;" transform="matrix(1 0 0 1 776 2007)">Modifications are automatically applied proportionally to all</text>
  <text style="stroke:none;fill:black;font-family:-apple-system,&quot;SF Pro Display&quot;,&quot;SF Pro Text&quot;,Helvetica,sans-serif;" transform="matrix(1 0 0 1 776 2025)">scales and weights.</text>
  <g id="" transform="matrix(1 0 0 1 1289 1933)">
   <path d="M 2.83203 3.11523 L 4.375 4.6582 C 5.22461 5.48828 6.19141 5.41992 7.06055 4.46289 L 17.2754 -6.66016 C 17.7051 -6.36719 18.0957 -6.37695 18.5645 -6.47461 L 19.6094 -6.68945 L 20.3027 -5.99609 L 20.2539 -5.47852 C 20.1855 -4.95117 20.3516 -4.53125 20.8496 -4.0332 L 21.6602 -3.22266 C 22.168 -2.71484 22.8223 -2.68555 23.3008 -3.16406 L 26.5527 -6.41602 C 27.0312 -6.89453 27.0117 -7.54883 26.5039 -8.05664 L 25.6836 -8.87695 C 25.1855 -9.375 24.7754 -9.55078 24.2383 -9.47266 L 23.7109 -9.41406 L 23.0566 -10.0781 L 23.3398 -11.2207 C 23.4863 -11.7871 23.3398 -12.2559 22.7148 -12.8613 L 20.3027 -15.2539 C 16.7578 -18.7793 12.2266 -18.6719 9.11133 -15.5371 C 8.69141 -15.1074 8.64258 -14.5215 8.91602 -14.0918 C 9.15039 -13.7207 9.62891 -13.4961 10.2734 -13.6621 C 11.7871 -14.043 13.3008 -13.9258 14.7852 -12.9199 L 14.1602 -11.3379 C 13.9258 -10.752 13.9453 -10.2734 14.1797 -9.83398 L 3.01758 0.439453 C 2.08008 1.30859 1.97266 2.25586 2.83203 3.11523 Z M 10.6738 -15.1465 C 13.3398 -17.1387 16.6504 -16.8262 19.0527 -14.4141 L 21.6797 -11.8066 C 21.9141 -11.5723 21.9434 -11.3867 21.8848 -11.0938 L 21.5039 -9.53125 L 23.0762 -7.95898 L 24.043 -8.04688 C 24.3262 -8.07617 24.4141 -8.05664 24.6387 -7.83203 L 25.2637 -7.20703 L 22.5098 -4.46289 L 21.8848 -5.07812 C 21.6602 -5.30273 21.6406 -5.40039 21.6699 -5.68359 L 21.7578 -6.64062 L 20.1953 -8.20312 L 18.5742 -7.89062 C 18.291 -7.83203 18.1445 -7.83203 17.9102 -8.07617 L 15.7324 -10.2539 C 15.5078 -10.4883 15.4785 -10.625 15.6055 -10.9473 L 16.5527 -13.2227 C 14.9512 -14.7559 12.8418 -15.6055 10.8008 -14.9512 C 10.7129 -14.9219 10.6445 -14.9414 10.6152 -14.9805 C 10.5859 -15.0293 10.5859 -15.0781 10.6738 -15.1465 Z M 4.10156 2.41211 C 3.61328 1.91406 3.78906 1.61133 4.12109 1.30859 L 15.0781 -8.80859 L 16.3086 -7.57812 L 6.15234 3.34961 C 5.84961 3.68164 5.46875 3.7793 5.06836 3.37891 Z"/>
  </g>
  <text style="stroke:none;fill:black;font-family:-apple-system,&quot;SF Pro Display&quot;,&quot;SF Pro Text&quot;,Helvetica,sans-serif;font-weight:bold;" transform="matrix(1 0 0 1 1289 1953)">Exporting</text>
  <text style="stroke:none;fill:black;font-family:-apple-system,&quot;SF Pro Display&quot;,&quot;SF Pro Text&quot;,Helvetica,sans-serif;" transform="matrix(1 0 0 1 1289 1971)">Symbols should be outlined when exporting to ensure the</text>
  <text style="stroke:none;fill:black;font-family:-apple-system,&quot;SF Pro Display&quot;,&quot;SF Pro Text&quot;,Helvetica,sans-serif;" transform="matrix(1 0 0 1 1289 1989)">design is preserved when submitting to Xcode.</text>
  <text id="template-version" style="stroke:none;fill:black;font-family:-apple-system,&quot;SF Pro Display&quot;,&quot;SF Pro Text&quot;,Helvetica,sans-serif;text-anchor:end;" transform="matrix(1 0 0 1 3036 1933)">Template v.1.0</text>
  <text style="stroke:none;fill:black;font-family:-apple-system,&quot;SF Pro Display&quot;,&quot;SF Pro Text&quot;,Helvetica,sans-serif;text-anchor:end;" transform="matrix(1 0 0 1 3036 1951)">Generated from arrow.down.square</text>
  <text style="stroke:none;fill:black;font-family:-apple-system,&quot;SF Pro Display&quot;,&quot;SF Pro Text&quot;,Helvetica,sans-serif;text-anchor:end;" transform="matrix(1 0 0 1 3036 1969)">Typeset at 100 points</text>
  <text style="stroke:none;fill:black;font-family:-apple-system,&quot;SF Pro Display&quot;,&quot;SF Pro Text&quot;,Helvetica,sans-serif;" transform="matrix(1 0 0 1 263 726)">Small</text>
  <text style="stroke:none;fill:black;font-family:-apple-system,&quot;SF Pro Display&quot;,&quot;SF Pro Text&quot;,Helvetica,sans-serif;" transform="matrix(1 0 0 1 263 1156)">Medium</text>
  <text style="stroke:none;fill:black;font-family:-apple-system,&quot;SF Pro Display&quot;,&quot;SF Pro Text&quot;,Helvetica,sans-serif;" transform="matrix(1 0 0 1 263 1586)">Large</text>
 </g>
 <g id="Guides">
  <g id="H-reference" style="fill:#27AAE1;stroke:none;" transform="matrix(1 0 0 1 339 696)">
   <path d="M 54.9316 0 L 57.666 0 L 30.5664 -70.459 L 28.0762 -70.459 L 0.976562 0 L 3.66211 0 L 12.9395 -24.4629 L 45.7031 -24.4629 Z M 29.1992 -67.0898 L 29.4434 -67.0898 L 44.8242 -26.709 L 13.8184 -26.709 Z"/>
  </g>
  <line id="Baseline-S" style="fill:none;stroke:#27AAE1;opacity:1;stroke-width:0.577;" x1="263" x2="3036" y1="696" y2="696"/>
  <line id="Capline-S" style="fill:none;stroke:#27AAE1;opacity:1;stroke-width:0.577;" x1="263" x2="3036" y1="625.541" y2="625.541"/>
  <g id="H-reference" style="fill:#27AAE1;stroke:none;" transform="matrix(1 0 0 1 339 1126)">
   <path d="M 54.9316 0 L 57.666 0 L 30.5664 -70.459 L 28.0762 -70.459 L 0.976562 0 L 3.66211 0 L 12.9395 -24.4629 L 45.7031 -24.4629 Z M 29.1992 -67.0898 L 29.4434 -67.0898 L 44.8242 -26.709 L 13.8184 -26.709 Z"/>
  </g>
  <line id="Baseline-M" style="fill:none;stroke:#27AAE1;opacity:1;stroke-width:0.577;" x1="263" x2="3036" y1="1126" y2="1126"/>
  <line id="Capline-M" style="fill:none;stroke:#27AAE1;opacity:1;stroke-width:0.577;" x1="263" x2="3036" y1="1055.54" y2="1055.54"/>
  <g id="H-reference" style="fill:#27AAE1;stroke:none;" transform="matrix(1 0 0 1 339 1556)">
   <path d="M 54.9316 0 L 57.666 0 L 30.5664 -70.459 L 28.0762 -70.459 L 0.976562 0 L 3.66211 0 L 12.9395 -24.4629 L 45.7031 -24.4629 Z M 29.1992 -67.0898 L 29.4434 -67.0898 L 44.8242 -26.709 L 13.8184 -26.709 Z"/>
  </g>
  <line id="Baseline-L" style="fill:none;stroke:#27AAE1;opacity:1;stroke-width:0.577;" x1="263" x2="3036" y1="1556" y2="1556"/>
  <line id="Capline-L" style="fill:none;stroke:#27AAE1;opacity:1;stroke-width:0.577;" x1="263" x2="3036" y1="1485.54" y2="1485.54"/>
  <rect height="119.336" id="left-margin" style="fill:#00AEEF;stroke:none;opacity:0.4;" width="12.4512" x="1392.45" y="1030.79"/>
  <rect height="119.336" id="right-margin" style="fill:#00AEEF;stroke:none;opacity:0.4;" width="12.4512" x="1494.79" y="1030.79"/>
 </g>
 <g id="Symbols">
  <g id="Black-L" transform="matrix(1 0 0 1 2855.62 1556)">
   <path d="M 39.9902 26.5137 L 115.576 26.5137 C 130.811 26.5137 139.502 17.8711 139.502 2.68555 L 139.502 -73.0957 C 139.502 -88.2812 130.811 -96.875 115.576 -96.875 L 39.9902 -96.875 C 24.7559 -96.875 16.0645 -88.2812 16.0645 -73.0957 L 16.0645 2.68555 C 16.0645 17.8711 24.7559 26.5137 39.9902 26.5137 Z M 42.6758 6.29883 C 38.4766 6.29883 36.3281 4.39453 36.3281 -0.146484 L 36.3281 -70.2148 C 36.3281 -74.7559 38.4766 -76.6602 42.6758 -76.6602 L 112.842 -76.6602 C 117.09 -76.6602 119.238 -74.7559 119.238 -70.2148 L 119.238 -0.146484 C 119.238 4.39453 117.09 6.29883 112.842 6.29883 Z M 77.7832 -3.85742 C 80.4688 -3.85742 82.5684 -4.88281 84.375 -6.78711 L 102.832 -26.5137 C 104.395 -28.1738 104.98 -29.5898 104.98 -31.6895 C 104.98 -35.4492 102.197 -38.0859 98.291 -38.0859 C 96.3867 -38.0859 94.4824 -37.2559 93.2617 -35.8398 L 88.3301 -30.0781 L 84.9121 -24.7559 L 85.6934 -36.0352 L 85.6934 -58.9355 C 85.6934 -63.2324 82.2266 -66.3086 77.7832 -66.3086 C 73.3398 -66.3086 69.8242 -63.2324 69.8242 -58.9355 L 69.8242 -36.0352 L 70.6055 -24.8047 L 67.2852 -29.834 L 62.2559 -35.8398 C 61.1328 -37.207 59.2285 -38.0859 57.2754 -38.0859 C 53.3203 -38.0859 50.5859 -35.4492 50.5859 -31.6895 C 50.5859 -29.5898 51.123 -28.1738 52.6855 -26.5137 L 71.1914 -6.78711 C 73.0469 -4.88281 75.0977 -3.85742 77.7832 -3.85742 Z"/>
  </g>
  <g id="Heavy-L" transform="matrix(1 0 0 1 2559.93 1556)">
   <path d="M 38.8184 25.4883 L 114.697 25.4883 C 129.346 25.4883 137.451 17.4316 137.451 2.88086 L 137.451 -73.2422 C 137.451 -87.793 129.346 -95.8496 114.697 -95.8496 L 38.8184 -95.8496 C 24.2188 -95.8496 16.0645 -87.793 16.0645 -73.2422 L 16.0645 2.88086 C 16.0645 17.4316 24.2188 25.4883 38.8184 25.4883 Z M 40.918 8.00781 C 36.084 8.00781 33.5938 5.71289 33.5938 0.585938 L 33.5938 -70.9473 C 33.5938 -76.0742 36.084 -78.3691 40.918 -78.3691 L 112.549 -78.3691 C 117.383 -78.3691 119.922 -76.0742 119.922 -70.9473 L 119.922 0.585938 C 119.922 5.71289 117.383 8.00781 112.549 8.00781 Z M 76.7578 -3.56445 C 79.1016 -3.56445 80.9082 -4.49219 82.5195 -6.20117 L 101.855 -26.416 C 103.223 -27.8809 103.76 -29.1992 103.76 -31.0547 C 103.76 -34.4727 101.221 -36.8652 97.7051 -36.8652 C 95.9961 -36.8652 94.2871 -36.1328 93.2129 -34.8633 L 87.3047 -28.3203 L 83.0566 -22.4121 L 83.7891 -33.9355 L 83.7891 -60.0098 C 83.7891 -63.8672 80.7129 -66.6016 76.7578 -66.6016 C 72.8027 -66.6016 69.7266 -63.8672 69.7266 -60.0098 L 69.7266 -33.9355 L 70.4102 -22.4609 L 66.3086 -28.125 L 60.3027 -34.8633 C 59.2773 -36.084 57.5684 -36.8652 55.8105 -36.8652 C 52.2949 -36.8652 49.8047 -34.4727 49.8047 -31.0547 C 49.8047 -29.1992 50.293 -27.8809 51.6602 -26.416 L 70.9961 -6.20117 C 72.6562 -4.44336 74.4629 -3.56445 76.7578 -3.56445 Z"/>
  </g>
  <g id="Bold-L" transform="matrix(1 0 0 1 2264.37 1556)">
   <path d="M 37.5 24.3652 L 113.721 24.3652 C 127.637 24.3652 135.156 16.8945 135.156 3.07617 L 135.156 -73.3887 C 135.156 -87.207 127.637 -94.7266 113.721 -94.7266 L 37.5 -94.7266 C 23.6328 -94.7266 16.0645 -87.2559 16.0645 -73.3887 L 16.0645 3.07617 C 16.0645 16.8945 23.6328 24.3652 37.5 24.3652 Z M 38.9648 9.91211 C 33.4473 9.91211 30.5176 7.17773 30.5176 1.41602 L 30.5176 -71.7285 C 30.5176 -77.5391 33.4473 -80.2734 38.9648 -80.2734 L 112.256 -80.2734 C 117.725 -80.2734 120.703 -77.5391 120.703 -71.7285 L 120.703 1.41602 C 120.703 7.17773 117.725 9.91211 112.256 9.91211 Z M 75.6348 -3.27148 C 77.5391 -3.27148 79.0527 -4.05273 80.4688 -5.51758 L 100.781 -26.3672 C 101.904 -27.5391 102.393 -28.7598 102.393 -30.3711 C 102.393 -33.3496 100.146 -35.498 97.0703 -35.498 C 95.5078 -35.498 94.0918 -34.8633 93.1152 -33.7402 L 86.1328 -26.3184 L 81.0059 -19.7754 L 81.5918 -31.543 L 81.5918 -61.2305 C 81.5918 -64.5508 79.0039 -66.9434 75.6348 -66.9434 C 72.2168 -66.9434 69.6289 -64.5508 69.6289 -61.2305 L 69.6289 -31.543 L 70.2148 -19.8242 L 65.1855 -26.1719 L 58.1055 -33.7402 C 57.1777 -34.8145 55.7617 -35.498 54.1992 -35.498 C 51.123 -35.498 48.877 -33.3496 48.877 -30.3711 C 48.877 -28.7598 49.3652 -27.5391 50.4883 -26.3672 L 70.8008 -5.51758 C 72.2168 -4.00391 73.7305 -3.27148 75.6348 -3.27148 Z"/>
  </g>
  <g id="Semibold-L" transform="matrix(1 0 0 1 1968.44 1556)">
   <path d="M 36.6211 23.584 L 113.037 23.584 C 126.514 23.584 133.594 16.5039 133.594 3.17383 L 133.594 -73.5352 C 133.594 -86.8164 126.514 -93.9453 113.037 -93.9453 L 36.6211 -93.9453 C 23.1934 -93.9453 16.0645 -86.8652 16.0645 -73.5352 L 16.0645 3.17383 C 16.0645 16.5527 23.1934 23.584 36.6211 23.584 Z M 37.5977 11.2793 C 31.6406 11.2793 28.418 8.20312 28.418 1.95312 L 28.418 -72.3145 C 28.418 -78.5156 31.6406 -81.5918 37.5977 -81.5918 L 112.061 -81.5918 C 117.969 -81.5918 121.24 -78.5156 121.24 -72.3145 L 121.24 1.95312 C 121.24 8.20312 117.969 11.2793 112.061 11.2793 Z M 74.8047 -3.02734 C 76.5137 -3.02734 77.832 -3.71094 79.0527 -5.0293 L 100 -26.3184 C 100.977 -27.3438 101.465 -28.418 101.465 -29.8828 C 101.465 -32.5684 99.3652 -34.5215 96.6309 -34.5215 C 95.2148 -34.5215 93.9453 -33.9844 93.0664 -33.0078 L 85.3027 -24.9512 L 79.5898 -17.9688 L 80.127 -29.9316 L 80.127 -62.0605 C 80.127 -65.0391 77.8809 -67.1875 74.8047 -67.1875 C 71.8262 -67.1875 69.5312 -65.0391 69.5312 -62.0605 L 69.5312 -29.9316 L 70.0684 -18.0176 L 64.4043 -24.8535 L 56.5918 -33.0078 C 55.7617 -33.9355 54.4922 -34.5215 53.0762 -34.5215 C 50.293 -34.5215 48.291 -32.5684 48.291 -29.8828 C 48.291 -28.418 48.6816 -27.3438 49.6582 -26.3184 L 70.6055 -5.0293 C 71.9238 -3.66211 73.1934 -3.02734 74.8047 -3.02734 Z"/>
  </g>
  <g id="Medium-L" transform="matrix(1 0 0 1 1672.31 1556)">
   <path d="M 35.9375 22.998 L 112.5 22.998 C 125.635 22.998 132.422 16.2109 132.422 3.27148 L 132.422 -73.6328 C 132.422 -86.5234 125.635 -93.3105 112.5 -93.3105 L 35.9375 -93.3105 C 22.9004 -93.3105 16.0645 -86.5723 16.0645 -73.6328 L 16.0645 3.27148 C 16.0645 16.2598 22.9004 22.998 35.9375 22.998 Z M 36.5723 12.2559 C 30.2246 12.2559 26.8066 8.98438 26.8066 2.39258 L 26.8066 -72.7051 C 26.8066 -79.2969 30.2246 -82.6172 36.5723 -82.6172 L 111.865 -82.6172 C 118.115 -82.6172 121.68 -79.2969 121.68 -72.7051 L 121.68 2.39258 C 121.68 8.98438 118.115 12.2559 111.865 12.2559 Z M 74.2188 -2.88086 C 75.6836 -2.88086 76.8555 -3.4668 77.9785 -4.63867 L 99.4141 -26.2695 C 100.293 -27.1484 100.732 -28.1738 100.732 -29.4922 C 100.732 -31.9824 98.8281 -33.8379 96.2891 -33.8379 C 94.9707 -33.8379 93.8477 -33.3496 93.0176 -32.4219 L 84.7168 -23.877 L 78.5156 -16.5527 L 79.0039 -28.6621 L 79.0039 -62.6953 C 79.0039 -65.4297 77.002 -67.334 74.2188 -67.334 C 71.4844 -67.334 69.4824 -65.4297 69.4824 -62.6953 L 69.4824 -28.6621 L 69.9707 -16.6504 L 63.8184 -23.8281 L 55.4688 -32.4219 C 54.6387 -33.3008 53.5156 -33.8379 52.1973 -33.8379 C 49.6582 -33.8379 47.8027 -31.9824 47.8027 -29.4922 C 47.8027 -28.1738 48.1934 -27.1484 49.0723 -26.2695 L 70.5078 -4.63867 C 71.7285 -3.41797 72.8027 -2.88086 74.2188 -2.88086 Z"/>
  </g>
  <g id="Regular-L" transform="matrix(1 0 0 1 1376.38 1556)">
   <path d="M 35.0586 22.2168 L 111.816 22.2168 C 124.463 22.2168 130.859 15.8691 130.859 3.41797 L 130.859 -73.7305 C 130.859 -86.1816 124.463 -92.5293 111.816 -92.5293 L 35.0586 -92.5293 C 22.4609 -92.5293 16.0645 -86.2305 16.0645 -73.7305 L 16.0645 3.41797 C 16.0645 15.918 22.4609 22.2168 35.0586 22.2168 Z M 35.2539 13.5742 C 28.418 13.5742 24.707 9.96094 24.707 2.97852 L 24.707 -73.291 C 24.707 -80.2734 28.418 -83.8867 35.2539 -83.8867 L 111.67 -83.8867 C 118.359 -83.8867 122.217 -80.2734 122.217 -73.291 L 122.217 2.97852 C 122.217 9.96094 118.359 13.5742 111.67 13.5742 Z M 73.4375 -2.68555 C 74.6582 -2.68555 75.5859 -3.17383 76.6113 -4.19922 L 98.6816 -26.2207 C 99.4141 -26.9043 99.8047 -27.8809 99.8047 -29.0039 C 99.8047 -31.2012 98.0957 -32.8613 95.8496 -32.8613 C 94.6777 -32.8613 93.7012 -32.4707 92.9688 -31.6895 L 83.8867 -22.5098 L 77.0996 -14.7461 L 77.5391 -27.0508 L 77.5391 -63.5254 C 77.5391 -65.8691 75.8301 -67.5781 73.4375 -67.5781 C 71.0938 -67.5781 69.3848 -65.8691 69.3848 -63.5254 L 69.3848 -27.0508 L 69.8242 -14.8438 L 63.0859 -22.5098 L 53.9551 -31.6895 C 53.2227 -32.4219 52.2461 -32.8613 51.0742 -32.8613 C 48.877 -32.8613 47.168 -31.2012 47.168 -29.0039 C 47.168 -27.8809 47.5586 -26.9043 48.2422 -26.2207 L 70.3613 -4.19922 C 71.4355 -3.125 72.3145 -2.68555 73.4375 -2.68555 Z"/>
  </g>
  <g id="Light-L" transform="matrix(1 0 0 1 1080.5 1556)">
   <path d="M 34.0332 21.4355 L 111.23 21.4355 C 123.096 21.4355 129.199 15.2344 129.199 3.56445 L 129.199 -73.8281 C 129.199 -85.5469 123.096 -91.6992 111.23 -91.6992 L 34.0332 -91.6992 C 22.168 -91.6992 16.0645 -85.6445 16.0645 -73.8281 L 16.0645 3.56445 C 16.0645 15.3809 22.168 21.4355 34.0332 21.4355 Z M 34.1797 14.7949 C 26.709 14.7949 22.7051 10.8398 22.7051 3.22266 L 22.7051 -73.4863 C 22.7051 -81.1523 26.709 -85.0586 34.1797 -85.0586 L 111.035 -85.0586 C 118.359 -85.0586 122.559 -81.1523 122.559 -73.4863 L 122.559 3.22266 C 122.559 10.8398 118.359 14.7949 111.035 14.7949 Z M 72.6074 -2.63672 C 73.5352 -2.63672 74.2676 -3.02734 75 -3.75977 L 98.0469 -26.8066 C 98.6328 -27.3926 98.9746 -28.0762 98.9746 -28.9551 C 98.9746 -30.6641 97.6074 -31.9336 95.8984 -31.9336 C 94.9707 -31.9336 94.2871 -31.6406 93.6523 -30.957 L 82.8613 -20.1172 L 75.4883 -12.1582 L 75.7812 -23.0469 L 75.7812 -64.3555 C 75.7812 -66.2598 74.5117 -67.5293 72.6074 -67.5293 C 70.8008 -67.5293 69.4336 -66.2598 69.4336 -64.3555 L 69.4336 -23.0469 L 69.7754 -12.2559 L 62.5 -20.1172 L 51.6602 -30.957 C 51.0254 -31.5918 50.293 -31.9336 49.3652 -31.9336 C 47.6562 -31.9336 46.3867 -30.6641 46.3867 -28.9551 C 46.3867 -28.0762 46.6797 -27.3926 47.2168 -26.8066 L 70.2637 -3.75977 C 71.0449 -2.97852 71.7773 -2.63672 72.6074 -2.63672 Z"/>
  </g>
  <g id="Thin-L" transform="matrix(1 0 0 1 784.889 1556)">
   <path d="M 32.666 20.3613 L 110.352 20.3613 C 121.24 20.3613 127.002 14.4531 127.002 3.75977 L 127.002 -73.9746 C 127.002 -84.7168 121.24 -90.5762 110.352 -90.5762 L 32.666 -90.5762 C 21.7773 -90.5762 16.0645 -84.8633 16.0645 -73.9746 L 16.0645 3.75977 C 16.0645 14.6484 21.7773 20.3613 32.666 20.3613 Z M 32.8125 16.4062 C 24.4141 16.4062 19.9707 12.0117 19.9707 3.56445 L 19.9707 -73.7793 C 19.9707 -82.2754 24.4141 -86.6699 32.8125 -86.6699 L 110.205 -86.6699 C 118.359 -86.6699 123.047 -82.2754 123.047 -73.7793 L 123.047 3.56445 C 123.047 12.0117 118.359 16.4062 110.205 16.4062 Z M 71.5332 -2.63672 C 72.0215 -2.63672 72.5098 -2.83203 72.9004 -3.22266 L 97.2656 -27.5879 C 97.6562 -27.9785 97.8516 -28.3691 97.8516 -28.9062 C 97.8516 -29.9316 97.0215 -30.7129 95.9961 -30.7129 C 95.4102 -30.7129 95.0195 -30.5176 94.5801 -30.0293 L 81.3965 -16.8945 L 73.3398 -8.74023 L 73.5352 -17.7246 L 73.5352 -65.5273 C 73.5352 -66.748 72.7539 -67.5293 71.5332 -67.5293 C 70.3613 -67.5293 69.5312 -66.748 69.5312 -65.5273 L 69.5312 -17.7246 L 69.7266 -8.83789 L 61.7188 -16.8945 L 48.584 -30.0293 C 48.0957 -30.5176 47.7051 -30.7129 47.1191 -30.7129 C 46.0938 -30.7129 45.3125 -29.9316 45.3125 -28.9062 C 45.3125 -28.3691 45.5078 -27.9785 45.8496 -27.5879 L 70.1172 -3.22266 C 70.5566 -2.83203 71.0449 -2.63672 71.5332 -2.63672 Z"/>
  </g>
  <g id="Ultralight-L" transform="matrix(1 0 0 1 488.739 1556)">
   <path d="M 31.9824 19.7754 L 109.961 19.7754 C 120.312 19.7754 125.879 14.0625 125.879 3.85742 L 125.879 -74.0723 C 125.879 -84.2773 120.312 -89.9902 109.961 -89.9902 L 31.9824 -89.9902 C 21.582 -89.9902 16.0645 -84.4727 16.0645 -74.0723 L 16.0645 3.85742 C 16.0645 14.2578 21.582 19.7754 31.9824 19.7754 Z M 32.1289 17.2363 C 23.1934 17.2363 18.6035 12.6465 18.6035 3.75977 L 18.6035 -73.9258 C 18.6035 -82.8125 23.1934 -87.4512 32.1289 -87.4512 L 109.766 -87.4512 C 118.359 -87.4512 123.291 -82.8125 123.291 -73.9258 L 123.291 3.75977 C 123.291 12.6465 118.359 17.2363 109.766 17.2363 Z M 70.9473 -2.63672 C 71.2891 -2.63672 71.582 -2.73438 71.8262 -2.97852 L 96.8262 -27.9785 C 97.1191 -28.2715 97.2656 -28.5156 97.2656 -28.9062 C 97.2656 -29.541 96.7285 -30.0781 95.9961 -30.0781 C 95.6055 -30.0781 95.3613 -29.9316 95.0195 -29.5898 L 80.7129 -15.2344 L 72.2168 -6.98242 L 72.3633 -14.9902 L 72.3633 -66.1133 C 72.3633 -66.9922 71.8262 -67.5293 70.9473 -67.5293 C 70.166 -67.5293 69.5801 -66.9922 69.5801 -66.1133 L 69.5801 -14.9902 L 69.6777 -7.08008 L 61.3281 -15.2344 L 46.9727 -29.5898 C 46.6309 -29.9316 46.3867 -30.0781 45.9961 -30.0781 C 45.2637 -30.0781 44.7266 -29.541 44.7266 -28.9062 C 44.7266 -28.5156 44.873 -28.2715 45.166 -27.9785 L 70.0684 -2.97852 C 70.3125 -2.73438 70.6543 -2.63672 70.9473 -2.63672 Z"/>
  </g>
  <g id="Black-M" transform="matrix(1 0 0 1 2872.19 1126)">
   <path d="M 31.9824 13.5742 L 90.4297 13.5742 C 102.686 13.5742 109.961 6.29883 109.961 -5.95703 L 109.961 -64.4043 C 109.961 -76.6602 102.686 -83.9355 90.4297 -83.9355 L 31.9824 -83.9355 C 19.7266 -83.9355 12.4512 -76.6602 12.4512 -64.4043 L 12.4512 -5.95703 C 12.4512 6.29883 19.7266 13.5742 31.9824 13.5742 Z M 34.9121 -4.73633 C 32.0801 -4.73633 30.7617 -5.81055 30.7617 -8.88672 L 30.7617 -61.4746 C 30.7617 -64.5508 32.0801 -65.6738 34.9121 -65.6738 L 87.5 -65.6738 C 90.332 -65.6738 91.6504 -64.5508 91.6504 -61.4746 L 91.6504 -8.88672 C 91.6504 -5.81055 90.332 -4.73633 87.5 -4.73633 Z M 61.1816 -11.2793 C 63.5742 -11.2793 65.4785 -12.1582 66.9922 -13.8184 L 80.7129 -28.8574 C 82.0801 -30.3711 82.5195 -31.4941 82.5195 -33.3496 C 82.5195 -36.4746 80.2734 -38.5742 76.9531 -38.5742 C 75.3906 -38.5742 73.7793 -37.8418 72.7539 -36.6699 L 69.2871 -32.373 L 67.4316 -28.9062 L 68.1152 -36.5723 L 68.1152 -52.6367 C 68.1152 -56.25 65.0391 -58.8867 61.1816 -58.8867 C 57.373 -58.8867 54.2969 -56.25 54.2969 -52.6367 L 54.2969 -36.5723 L 54.9805 -28.9062 L 53.1738 -32.1289 L 49.6582 -36.6699 C 48.7305 -37.8418 47.0703 -38.5742 45.459 -38.5742 C 42.1387 -38.5742 39.8438 -36.4746 39.8438 -33.3496 C 39.8438 -31.4941 40.2832 -30.3711 41.6992 -28.8574 L 55.4199 -13.8184 C 56.9336 -12.1582 58.7891 -11.2793 61.1816 -11.2793 Z"/>
  </g>
  <g id="Heavy-M" transform="matrix(1 0 0 1 2576.39 1126)">
   <path d="M 31.0059 12.6465 L 89.6484 12.6465 C 101.416 12.6465 108.154 5.9082 108.154 -5.81055 L 108.154 -64.5508 C 108.154 -76.2695 101.416 -83.0566 89.6484 -83.0566 L 31.0059 -83.0566 C 19.2383 -83.0566 12.4512 -76.3184 12.4512 -64.5508 L 12.4512 -5.81055 C 12.4512 5.9082 19.2383 12.6465 31.0059 12.6465 Z M 33.252 -3.17383 C 29.9316 -3.17383 28.2715 -4.63867 28.2715 -8.1543 L 28.2715 -62.207 C 28.2715 -65.7715 29.9316 -67.2363 33.252 -67.2363 L 87.3535 -67.2363 C 90.6738 -67.2363 92.334 -65.7715 92.334 -62.207 L 92.334 -8.1543 C 92.334 -4.63867 90.6738 -3.17383 87.3535 -3.17383 Z M 60.3027 -10.9863 C 62.4023 -10.9863 64.0137 -11.7676 65.4297 -13.2324 L 79.7852 -28.6621 C 81.0059 -29.9316 81.4453 -31.0059 81.4453 -32.666 C 81.4453 -35.498 79.3457 -37.5 76.3184 -37.5 C 74.8535 -37.5 73.4375 -36.8164 72.5098 -35.7422 L 68.457 -31.0547 L 65.8203 -27.002 L 66.4551 -35.3027 L 66.4551 -53.5645 C 66.4551 -56.8848 63.7207 -59.2285 60.3027 -59.2285 C 56.8848 -59.2285 54.1504 -56.8848 54.1504 -53.5645 L 54.1504 -35.3027 L 54.7852 -27.0508 L 52.2461 -30.8594 L 48.0957 -35.7422 C 47.2656 -36.8164 45.8008 -37.5 44.2871 -37.5 C 41.2598 -37.5 39.209 -35.498 39.209 -32.666 C 39.209 -31.0059 39.5996 -29.9316 40.8203 -28.6621 L 55.2246 -13.2324 C 56.5918 -11.7676 58.252 -10.9863 60.3027 -10.9863 Z"/>
  </g>
  <g id="Bold-M" transform="matrix(1 0 0 1 2280.68 1126)">
   <path d="M 29.8828 11.6699 L 88.7207 11.6699 C 99.9512 11.6699 106.152 5.46875 106.152 -5.66406 L 106.152 -64.6973 C 106.152 -75.8789 99.9512 -82.0312 88.7207 -82.0312 L 29.8828 -82.0312 C 18.6523 -82.0312 12.4512 -75.8789 12.4512 -64.6973 L 12.4512 -5.66406 C 12.4512 5.51758 18.6523 11.6699 29.8828 11.6699 Z M 31.3965 -1.41602 C 27.5391 -1.41602 25.5371 -3.27148 25.5371 -7.32422 L 25.5371 -63.0371 C 25.5371 -67.1387 27.5391 -68.9453 31.3965 -68.9453 L 87.207 -68.9453 C 91.0156 -68.9453 93.0664 -67.1387 93.0664 -63.0371 L 93.0664 -7.32422 C 93.0664 -3.27148 91.0156 -1.41602 87.207 -1.41602 Z M 59.3262 -10.6445 C 61.0352 -10.6445 62.4023 -11.3281 63.623 -12.5977 L 78.7598 -28.3691 C 79.7852 -29.4434 80.1758 -30.4688 80.1758 -31.8848 C 80.1758 -34.4238 78.2715 -36.2793 75.5859 -36.2793 C 74.3164 -36.2793 73.0469 -35.6934 72.2168 -34.7656 L 67.4805 -29.541 L 64.0625 -24.9023 L 64.5996 -33.8867 L 64.5996 -54.6387 C 64.5996 -57.5195 62.3047 -59.6191 59.3262 -59.6191 C 56.3477 -59.6191 54.0039 -57.5195 54.0039 -54.6387 L 54.0039 -33.8867 L 54.541 -24.9023 L 51.2207 -29.4434 L 46.3867 -34.7656 C 45.6055 -35.6934 44.3359 -36.2793 43.0176 -36.2793 C 40.332 -36.2793 38.4277 -34.4238 38.4277 -31.8848 C 38.4277 -30.4688 38.8184 -29.4434 39.8438 -28.3691 L 54.9805 -12.5977 C 56.25 -11.2793 57.5684 -10.6445 59.3262 -10.6445 Z"/>
  </g>
  <g id="Semibold-M" transform="matrix(1 0 0 1 1984.65 1126)">
   <path d="M 29.1016 10.9863 L 88.0859 10.9863 C 98.9746 10.9863 104.785 5.17578 104.785 -5.56641 L 104.785 -64.8438 C 104.785 -75.5859 98.9746 -81.3477 88.0859 -81.3477 L 29.1016 -81.3477 C 18.2617 -81.3477 12.4512 -75.5859 12.4512 -64.8438 L 12.4512 -5.56641 C 12.4512 5.22461 18.2617 10.9863 29.1016 10.9863 Z M 30.127 -0.195312 C 25.8789 -0.195312 23.6328 -2.34375 23.6328 -6.78711 L 23.6328 -63.623 C 23.6328 -68.0664 25.8789 -70.166 30.127 -70.166 L 87.1094 -70.166 C 91.2598 -70.166 93.6035 -68.0664 93.6035 -63.623 L 93.6035 -6.78711 C 93.6035 -2.34375 91.2598 -0.195312 87.1094 -0.195312 Z M 58.5938 -10.4004 C 60.1074 -10.4004 61.2793 -11.0352 62.4023 -12.1582 L 78.0762 -28.2227 C 78.9551 -29.1504 79.3457 -30.0781 79.3457 -31.3477 C 79.3457 -33.6914 77.5391 -35.4492 75.0977 -35.4492 C 73.877 -35.4492 72.7539 -34.9121 72.0215 -34.082 L 66.7969 -28.5156 L 62.8418 -23.3887 L 63.2812 -32.9102 L 63.2812 -55.3711 C 63.2812 -57.959 61.2793 -59.8633 58.5938 -59.8633 C 55.957 -59.8633 53.9062 -57.959 53.9062 -55.3711 L 53.9062 -32.9102 L 54.3945 -23.4375 L 50.4883 -28.4668 L 45.2148 -34.082 C 44.4824 -34.9121 43.3594 -35.4492 42.1387 -35.4492 C 39.6973 -35.4492 37.9395 -33.6914 37.9395 -31.3477 C 37.9395 -30.0781 38.2812 -29.1504 39.1602 -28.2227 L 54.834 -12.1582 C 56.0059 -10.9863 57.1289 -10.4004 58.5938 -10.4004 Z"/>
  </g>
  <g id="Medium-M" transform="matrix(1 0 0 1 1688.47 1126)">
   <path d="M 28.5156 10.4492 L 87.6465 10.4492 C 98.2422 10.4492 103.711 4.98047 103.711 -5.46875 L 103.711 -64.8926 C 103.711 -75.3418 98.2422 -80.8105 87.6465 -80.8105 L 28.5156 -80.8105 C 17.9688 -80.8105 12.4512 -75.3906 12.4512 -64.8926 L 12.4512 -5.46875 C 12.4512 4.98047 17.9688 10.4492 28.5156 10.4492 Z M 29.1504 0.732422 C 24.6582 0.732422 22.168 -1.61133 22.168 -6.34766 L 22.168 -64.0137 C 22.168 -68.75 24.6582 -71.0938 29.1504 -71.0938 L 87.0117 -71.0938 C 91.4551 -71.0938 93.9941 -68.75 93.9941 -64.0137 L 93.9941 -6.34766 C 93.9941 -1.61133 91.4551 0.732422 87.0117 0.732422 Z M 58.1055 -10.2539 C 59.4238 -10.2539 60.4492 -10.791 61.4746 -11.8164 L 77.5391 -28.0762 C 78.3203 -28.8574 78.6621 -29.7852 78.6621 -30.957 C 78.6621 -33.1543 77.002 -34.7656 74.7559 -34.7656 C 73.584 -34.7656 72.5586 -34.3262 71.875 -33.5449 L 66.3086 -27.7832 L 61.9141 -22.3145 L 62.3047 -32.1777 L 62.3047 -55.9082 C 62.3047 -58.3496 60.498 -60.0586 58.1055 -60.0586 C 55.6641 -60.0586 53.8574 -58.3496 53.8574 -55.9082 L 53.8574 -32.1777 L 54.2969 -22.3633 L 49.9512 -27.7344 L 44.3359 -33.5449 C 43.6035 -34.3262 42.5781 -34.7656 41.4551 -34.7656 C 39.209 -34.7656 37.5488 -33.1543 37.5488 -30.957 C 37.5488 -29.7852 37.8906 -28.8574 38.6719 -28.0762 L 54.7363 -11.8164 C 55.8105 -10.7422 56.7871 -10.2539 58.1055 -10.2539 Z"/>
  </g>
  <g id="Regular-M" transform="matrix(1 0 0 1 1392.45 1126)">
   <path d="M 27.7832 9.76562 L 87.0117 9.76562 C 97.2656 9.76562 102.344 4.6875 102.344 -5.37109 L 102.344 -64.9902 C 102.344 -75.0488 97.2656 -80.127 87.0117 -80.127 L 27.7832 -80.127 C 17.5781 -80.127 12.4512 -75.0977 12.4512 -64.9902 L 12.4512 -5.37109 C 12.4512 4.73633 17.5781 9.76562 27.7832 9.76562 Z M 27.8809 1.9043 C 22.998 1.9043 20.3125 -0.683594 20.3125 -5.76172 L 20.3125 -64.5996 C 20.3125 -69.6777 22.998 -72.2656 27.8809 -72.2656 L 86.9141 -72.2656 C 91.748 -72.2656 94.4824 -69.6777 94.4824 -64.5996 L 94.4824 -5.76172 C 94.4824 -0.683594 91.748 1.9043 86.9141 1.9043 Z M 57.4219 -10.0098 C 58.4961 -10.0098 59.3262 -10.4492 60.2539 -11.4258 L 76.8066 -27.8809 C 77.4414 -28.5645 77.832 -29.4434 77.832 -30.4199 C 77.832 -32.4219 76.2695 -33.9355 74.2676 -33.9355 C 73.1934 -33.9355 72.3145 -33.5938 71.6797 -32.8613 L 65.625 -26.7578 L 60.6934 -20.8496 L 61.0352 -31.2012 L 61.0352 -56.6406 C 61.0352 -58.7891 59.5215 -60.3027 57.4219 -60.3027 C 55.2734 -60.3027 53.7598 -58.7891 53.7598 -56.6406 L 53.7598 -31.2012 L 54.1016 -20.8984 L 49.2188 -26.7578 L 43.1641 -32.8613 C 42.4805 -33.5449 41.6016 -33.9355 40.5762 -33.9355 C 38.5742 -33.9355 37.0117 -32.4219 37.0117 -30.4199 C 37.0117 -29.4434 37.3535 -28.5645 37.9883 -27.8809 L 54.5898 -11.4258 C 55.5664 -10.4004 56.3477 -10.0098 57.4219 -10.0098 Z"/>
  </g>
  <g id="Light-M" transform="matrix(1 0 0 1 1096.47 1126)">
   <path d="M 26.8555 9.0332 L 86.4746 9.0332 C 95.9961 9.0332 100.879 4.15039 100.879 -5.22461 L 100.879 -65.0879 C 100.879 -74.5117 95.9961 -79.3945 86.4746 -79.3945 L 26.8555 -79.3945 C 17.334 -79.3945 12.4512 -74.5605 12.4512 -65.0879 L 12.4512 -5.22461 C 12.4512 4.19922 17.334 9.0332 26.8555 9.0332 Z M 26.9531 2.97852 C 21.4844 2.97852 18.5059 0.0976562 18.5059 -5.56641 L 18.5059 -64.7949 C 18.5059 -70.4102 21.4844 -73.3398 26.9531 -73.3398 L 86.3281 -73.3398 C 91.748 -73.3398 94.8242 -70.4102 94.8242 -64.7949 L 94.8242 -5.56641 C 94.8242 0.0976562 91.748 2.97852 86.3281 2.97852 Z M 56.6406 -10.0098 C 57.4707 -10.0098 58.1543 -10.3516 58.8379 -11.0352 L 76.2695 -28.418 C 76.8066 -28.9551 77.0508 -29.5898 77.0508 -30.4199 C 77.0508 -31.9336 75.8789 -33.1055 74.3164 -33.1055 C 73.4863 -33.1055 72.8027 -32.8125 72.2656 -32.2266 L 64.6973 -24.6094 L 59.2285 -18.5059 L 59.5215 -27.5879 L 59.5215 -57.4219 C 59.5215 -59.1309 58.3496 -60.3027 56.6406 -60.3027 C 55.0293 -60.3027 53.8086 -59.1309 53.8086 -57.4219 L 53.8086 -27.5879 L 54.1016 -18.6035 L 48.6816 -24.6094 L 41.0645 -32.2266 C 40.5273 -32.7637 39.8438 -33.1055 39.0137 -33.1055 C 37.5 -33.1055 36.3281 -31.9336 36.3281 -30.4199 C 36.3281 -29.5898 36.5723 -28.9551 37.0605 -28.418 L 54.4922 -11.0352 C 55.2246 -10.3027 55.8594 -10.0098 56.6406 -10.0098 Z"/>
  </g>
  <g id="Thin-M" transform="matrix(1 0 0 1 800.758 1126)">
   <path d="M 25.6348 8.05664 L 85.7422 8.05664 C 94.3848 8.05664 98.877 3.4668 98.877 -5.0293 L 98.877 -65.2344 C 98.877 -73.7305 94.3848 -78.3691 85.7422 -78.3691 L 25.6348 -78.3691 C 16.9922 -78.3691 12.4512 -73.877 12.4512 -65.2344 L 12.4512 -5.0293 C 12.4512 3.56445 16.9922 8.05664 25.6348 8.05664 Z M 25.7324 4.44336 C 19.3848 4.44336 16.0645 1.12305 16.0645 -5.22461 L 16.0645 -65.0391 C 16.0645 -71.4355 19.3848 -74.7559 25.7324 -74.7559 L 85.5957 -74.7559 C 91.748 -74.7559 95.2637 -71.4355 95.2637 -65.0391 L 95.2637 -5.22461 C 95.2637 1.12305 91.748 4.44336 85.5957 4.44336 Z M 55.6641 -9.96094 C 56.1523 -9.96094 56.5918 -10.1562 56.9824 -10.5469 L 75.5371 -29.1504 C 75.8789 -29.4434 76.0742 -29.834 76.0742 -30.3711 C 76.0742 -31.25 75.3418 -31.9824 74.3652 -31.9824 C 73.8281 -31.9824 73.4863 -31.7871 73.0957 -31.3965 L 63.4277 -21.7285 L 57.2754 -15.4297 L 57.4707 -22.8027 L 57.4707 -58.4473 C 57.4707 -59.5703 56.7383 -60.2539 55.6641 -60.2539 C 54.6387 -60.2539 53.8574 -59.5703 53.8574 -58.4473 L 53.8574 -22.8027 L 54.0527 -15.5273 L 47.998 -21.7285 L 38.3301 -31.3965 C 37.9395 -31.7871 37.5488 -31.9824 37.0117 -31.9824 C 36.0352 -31.9824 35.3516 -31.25 35.3516 -30.3711 C 35.3516 -29.834 35.498 -29.4434 35.8398 -29.1504 L 54.3945 -10.5469 C 54.7852 -10.1562 55.2246 -9.96094 55.6641 -9.96094 Z"/>
  </g>
  <g id="Ultralight-M" transform="matrix(1 0 0 1 504.535 1126)">
   <path d="M 25 7.56836 L 85.3516 7.56836 C 93.5059 7.56836 97.9004 3.125 97.9004 -4.98047 L 97.9004 -65.2832 C 97.9004 -73.3887 93.5059 -77.832 85.3516 -77.832 L 25 -77.832 C 16.7969 -77.832 12.4512 -73.4863 12.4512 -65.2832 L 12.4512 -4.98047 C 12.4512 3.22266 16.7969 7.56836 25 7.56836 Z M 25.0977 5.17578 C 18.3594 5.17578 14.8438 1.66016 14.8438 -5.07812 L 14.8438 -65.1855 C 14.8438 -71.9727 18.3594 -75.4395 25.0977 -75.4395 L 85.2051 -75.4395 C 91.748 -75.4395 95.5078 -71.9727 95.5078 -65.1855 L 95.5078 -5.07812 C 95.5078 1.66016 91.748 5.17578 85.2051 5.17578 Z M 55.1758 -9.96094 C 55.4688 -9.96094 55.7617 -10.0586 56.0059 -10.3027 L 75.1953 -29.4922 C 75.4395 -29.7363 75.5371 -29.9805 75.5371 -30.3223 C 75.5371 -30.957 75.0488 -31.3965 74.4141 -31.3965 C 74.0234 -31.3965 73.8281 -31.2988 73.4863 -31.0059 L 62.7441 -20.2637 L 56.2988 -13.8672 L 56.4453 -20.3613 L 56.4453 -58.9844 C 56.4453 -59.7656 55.957 -60.2539 55.1758 -60.2539 C 54.4434 -60.2539 53.9062 -59.7656 53.9062 -58.9844 L 53.9062 -20.3613 L 54.0039 -13.9648 L 47.6562 -20.2637 L 36.9141 -31.0059 C 36.5723 -31.2988 36.3281 -31.3965 35.9863 -31.3965 C 35.3516 -31.3965 34.8633 -30.957 34.8633 -30.3223 C 34.8633 -29.9805 34.9609 -29.7363 35.2051 -29.4922 L 54.3457 -10.3027 C 54.541 -10.0586 54.8828 -9.96094 55.1758 -9.96094 Z"/>
  </g>
  <g id="Black-S" transform="matrix(1 0 0 1 2885.5 696)">
   <path d="M 25 2.92969 L 70.8008 2.92969 C 80.3711 2.92969 86.0352 -2.73438 86.0352 -12.3047 L 86.0352 -58.1055 C 86.0352 -67.6758 80.3711 -73.3398 70.8008 -73.3398 L 25 -73.3398 C 15.4297 -73.3398 9.76562 -67.6758 9.76562 -58.1055 L 9.76562 -12.3047 C 9.76562 -2.73438 15.4297 2.92969 25 2.92969 Z M 27.2461 -11.2305 C 25 -11.2305 23.9258 -12.1094 23.9258 -14.5508 L 23.9258 -55.8594 C 23.9258 -58.3008 25 -59.1797 27.2461 -59.1797 L 68.5547 -59.1797 C 70.8008 -59.1797 71.875 -58.3008 71.875 -55.8594 L 71.875 -14.5508 C 71.875 -12.1094 70.8008 -11.2305 68.5547 -11.2305 Z M 47.9004 -16.4551 C 49.7559 -16.4551 51.2207 -17.1387 52.3926 -18.4082 L 63.1836 -30.2246 C 64.2578 -31.3965 64.5996 -32.2754 64.5996 -33.6914 C 64.5996 -36.1328 62.8418 -37.793 60.2539 -37.793 C 59.0332 -37.793 57.7637 -37.207 56.9824 -36.2793 L 54.248 -32.9102 L 52.7344 -30.1758 L 53.2715 -36.2305 L 53.2715 -48.9258 C 53.2715 -51.7578 50.8789 -53.8086 47.9004 -53.8086 C 44.9219 -53.8086 42.5293 -51.7578 42.5293 -48.9258 L 42.5293 -36.2305 L 43.0664 -30.1758 L 41.6016 -32.7148 L 38.8184 -36.2793 C 38.0859 -37.207 36.8164 -37.793 35.5469 -37.793 C 32.959 -37.793 31.2012 -36.1328 31.2012 -33.6914 C 31.2012 -32.2754 31.543 -31.3965 32.6172 -30.2246 L 43.4082 -18.4082 C 44.5801 -17.1387 46.0449 -16.4551 47.9004 -16.4551 Z"/>
  </g>
  <g id="Heavy-S" transform="matrix(1 0 0 1 2589.4 696)">
   <path d="M 24.3652 2.34375 L 70.2637 2.34375 C 79.541 2.34375 84.8145 -2.97852 84.8145 -12.207 L 84.8145 -58.2031 C 84.8145 -67.4316 79.541 -72.7539 70.2637 -72.7539 L 24.3652 -72.7539 C 15.0879 -72.7539 9.76562 -67.4316 9.76562 -58.2031 L 9.76562 -12.207 C 9.76562 -2.97852 15.0879 2.34375 24.3652 2.34375 Z M 26.0742 -10.1562 C 23.5352 -10.1562 22.2656 -11.2793 22.2656 -14.0137 L 22.2656 -56.3965 C 22.2656 -59.1309 23.5352 -60.2539 26.0742 -60.2539 L 68.5059 -60.2539 C 71.0449 -60.2539 72.3633 -59.1309 72.3633 -56.3965 L 72.3633 -14.0137 C 72.3633 -11.2793 71.0449 -10.1562 68.5059 -10.1562 Z M 47.3145 -16.2109 C 48.9258 -16.2109 50.2441 -16.8457 51.3184 -18.0176 L 62.5488 -29.9805 C 63.4766 -31.0059 63.8184 -31.8848 63.8184 -33.1543 C 63.8184 -35.4492 62.1582 -37.0605 59.7656 -37.0605 C 58.5938 -37.0605 57.4707 -36.5234 56.7383 -35.6445 L 53.7109 -32.1289 L 51.6602 -28.9551 L 52.1484 -35.6445 L 52.1484 -49.5605 C 52.1484 -52.1973 50 -54.0527 47.3145 -54.0527 C 44.5801 -54.0527 42.4316 -52.1973 42.4316 -49.5605 L 42.4316 -35.6445 L 42.9199 -29.0039 L 40.9668 -31.9824 L 37.8906 -35.6445 C 37.207 -36.5234 36.0352 -37.0605 34.8145 -37.0605 C 32.4219 -37.0605 30.7617 -35.4492 30.7617 -33.1543 C 30.7617 -31.8848 31.1035 -31.0059 32.0312 -29.9805 L 43.2617 -18.0176 C 44.3848 -16.8457 45.6543 -16.2109 47.3145 -16.2109 Z"/>
  </g>
  <g id="Bold-S" transform="matrix(1 0 0 1 2293.35 696)">
   <path d="M 23.6328 1.66016 L 69.6289 1.66016 C 78.6133 1.66016 83.4961 -3.22266 83.4961 -12.1094 L 83.4961 -58.3008 C 83.4961 -67.1875 78.6133 -72.0703 69.6289 -72.0703 L 23.6328 -72.0703 C 14.6973 -72.0703 9.76562 -67.1875 9.76562 -58.3008 L 9.76562 -12.1094 C 9.76562 -3.22266 14.6973 1.66016 23.6328 1.66016 Z M 24.8047 -8.93555 C 21.9238 -8.93555 20.3613 -10.3516 20.3613 -13.4277 L 20.3613 -56.9824 C 20.3613 -60.0586 21.9238 -61.4746 24.8047 -61.4746 L 68.457 -61.4746 C 71.3379 -61.4746 72.9004 -60.0586 72.9004 -56.9824 L 72.9004 -13.4277 C 72.9004 -10.3516 71.3379 -8.93555 68.457 -8.93555 Z M 46.6309 -15.9668 C 48.0469 -15.9668 49.1699 -16.5039 50.1465 -17.5781 L 61.8164 -29.7363 C 62.6465 -30.6152 62.9883 -31.4453 62.9883 -32.5684 C 62.9883 -34.7168 61.377 -36.2305 59.2285 -36.2305 C 58.1055 -36.2305 57.0801 -35.7422 56.3965 -35.0098 L 53.0762 -31.2988 L 50.4883 -27.6367 L 50.9277 -35.0098 L 50.9277 -50.293 C 50.9277 -52.6367 49.0723 -54.3457 46.6309 -54.3457 C 44.1895 -54.3457 42.334 -52.6367 42.334 -50.293 L 42.334 -35.0098 L 42.7246 -27.6367 L 40.2344 -31.2012 L 36.8164 -35.0098 C 36.1816 -35.7422 35.1562 -36.2305 34.0332 -36.2305 C 31.8359 -36.2305 30.2734 -34.7168 30.2734 -32.5684 C 30.2734 -31.4453 30.6152 -30.6152 31.4453 -29.7363 L 43.1152 -17.5781 C 44.1406 -16.5039 45.2148 -15.9668 46.6309 -15.9668 Z"/>
  </g>
  <g id="Semibold-S" transform="matrix(1 0 0 1 1997.1 696)">
   <path d="M 23.0957 1.17188 L 69.1895 1.17188 C 77.9297 1.17188 82.5684 -3.36914 82.5684 -12.0117 L 82.5684 -58.3984 C 82.5684 -67.041 77.9297 -71.582 69.1895 -71.582 L 23.0957 -71.582 C 14.4043 -71.582 9.76562 -67.041 9.76562 -58.3984 L 9.76562 -12.0117 C 9.76562 -3.36914 14.4043 1.17188 23.0957 1.17188 Z M 23.877 -8.10547 C 20.752 -8.10547 19.0918 -9.7168 19.0918 -12.9883 L 19.0918 -57.4219 C 19.0918 -60.6934 20.752 -62.3047 23.877 -62.3047 L 68.4082 -62.3047 C 71.5332 -62.3047 73.2422 -60.6934 73.2422 -57.4219 L 73.2422 -12.9883 C 73.2422 -9.7168 71.5332 -8.10547 68.4082 -8.10547 Z M 46.1426 -15.7715 C 47.4121 -15.7715 48.3887 -16.3086 49.3652 -17.2852 L 61.3281 -29.541 C 62.0605 -30.3223 62.4023 -31.1523 62.4023 -32.1777 C 62.4023 -34.1797 60.8887 -35.6445 58.8379 -35.6445 C 57.8125 -35.6445 56.8359 -35.2051 56.2012 -34.5215 L 52.6367 -30.6641 L 49.707 -26.709 L 50.0977 -34.5703 L 50.0977 -50.7812 C 50.0977 -52.9785 48.3887 -54.541 46.1426 -54.541 C 43.9453 -54.541 42.2363 -52.9785 42.2363 -50.7812 L 42.2363 -34.5703 L 42.627 -26.7578 L 39.6973 -30.6152 L 36.084 -34.5215 C 35.498 -35.2051 34.5215 -35.6445 33.4961 -35.6445 C 31.4453 -35.6445 29.9805 -34.1797 29.9805 -32.1777 C 29.9805 -31.1523 30.2734 -30.3223 31.0059 -29.541 L 43.0176 -17.2852 C 43.9941 -16.2598 44.9219 -15.7715 46.1426 -15.7715 Z"/>
  </g>
  <g id="Medium-S" transform="matrix(1 0 0 1 1700.75 696)">
   <path d="M 22.7051 0.830078 L 68.8965 0.830078 C 77.4414 0.830078 81.8359 -3.51562 81.8359 -11.9629 L 81.8359 -58.4473 C 81.8359 -66.8945 77.4414 -71.2402 68.8965 -71.2402 L 22.7051 -71.2402 C 14.209 -71.2402 9.76562 -66.8945 9.76562 -58.4473 L 9.76562 -11.9629 C 9.76562 -3.51562 14.209 0.830078 22.7051 0.830078 Z M 23.1934 -7.4707 C 19.9219 -7.4707 18.0664 -9.22852 18.0664 -12.6953 L 18.0664 -57.7148 C 18.0664 -61.1816 19.9219 -62.9395 23.1934 -62.9395 L 68.4082 -62.9395 C 71.6797 -62.9395 73.5352 -61.1816 73.5352 -57.7148 L 73.5352 -12.6953 C 73.5352 -9.22852 71.6797 -7.4707 68.4082 -7.4707 Z M 45.8008 -15.6738 C 46.9238 -15.6738 47.8027 -16.1133 48.7305 -17.041 L 60.9375 -29.3945 C 61.6211 -30.0781 61.9629 -30.9082 61.9629 -31.8848 C 61.9629 -33.7891 60.4492 -35.2051 58.5449 -35.2051 C 57.5684 -35.2051 56.6895 -34.8145 56.0547 -34.1797 L 52.3438 -30.2246 L 49.0723 -25.9766 L 49.4141 -34.2285 L 49.4141 -51.123 C 49.4141 -53.2227 47.9004 -54.6875 45.8008 -54.6875 C 43.7012 -54.6875 42.1875 -53.2227 42.1875 -51.123 L 42.1875 -34.2285 L 42.5293 -26.0254 L 39.3555 -30.1758 L 35.5469 -34.1797 C 34.9609 -34.7656 34.082 -35.2051 33.0566 -35.2051 C 31.1523 -35.2051 29.6875 -33.7891 29.6875 -31.8848 C 29.6875 -30.9082 29.9805 -30.0781 30.6641 -29.3945 L 42.9199 -17.041 C 43.8477 -16.0645 44.6777 -15.6738 45.8008 -15.6738 Z"/>
  </g>
  <g id="Regular-S" transform="matrix(1 0 0 1 1404.51 696)">
   <path d="M 22.2168 0.390625 L 68.457 0.390625 C 76.8066 0.390625 80.9082 -3.71094 80.9082 -11.9141 L 80.9082 -58.4961 C 80.9082 -66.6992 76.8066 -70.8008 68.457 -70.8008 L 22.2168 -70.8008 C 13.916 -70.8008 9.76562 -66.6992 9.76562 -58.4961 L 9.76562 -11.9141 C 9.76562 -3.71094 13.916 0.390625 22.2168 0.390625 Z M 22.3145 -6.68945 C 18.7988 -6.68945 16.7969 -8.54492 16.7969 -12.2559 L 16.7969 -58.1543 C 16.7969 -61.8164 18.7988 -63.7207 22.3145 -63.7207 L 68.3594 -63.7207 C 71.875 -63.7207 73.877 -61.8164 73.877 -58.1543 L 73.877 -12.2559 C 73.877 -8.54492 71.875 -6.68945 68.3594 -6.68945 Z M 45.3613 -15.4785 C 46.3379 -15.4785 47.0703 -15.918 47.9004 -16.748 L 60.4492 -29.248 C 61.0352 -29.7852 61.377 -30.6152 61.377 -31.4941 C 61.377 -33.252 59.9609 -34.6191 58.1543 -34.6191 C 57.2266 -34.6191 56.4453 -34.3262 55.8594 -33.6914 L 51.9043 -29.6387 L 48.2422 -25.0977 L 48.584 -33.8379 L 48.584 -51.6113 C 48.584 -53.5156 47.2168 -54.8828 45.3613 -54.8828 C 43.457 -54.8828 42.0898 -53.5156 42.0898 -51.6113 L 42.0898 -33.8379 L 42.4316 -25.1465 L 38.8184 -29.6387 L 34.8145 -33.6914 C 34.2773 -34.2773 33.4473 -34.6191 32.5195 -34.6191 C 30.7617 -34.6191 29.3945 -33.252 29.3945 -31.4941 C 29.3945 -30.6152 29.6387 -29.7852 30.2246 -29.248 L 42.8223 -16.748 C 43.7012 -15.8691 44.3848 -15.4785 45.3613 -15.4785 Z"/>
  </g>
  <g id="Light-S" transform="matrix(1 0 0 1 1108.46 696)">
   <path d="M 21.3867 -0.292969 L 67.9688 -0.292969 C 75.7324 -0.292969 79.5898 -4.15039 79.5898 -11.7676 L 79.5898 -58.5938 C 79.5898 -66.2109 75.7324 -70.1172 67.9688 -70.1172 L 21.3867 -70.1172 C 13.6719 -70.1172 9.76562 -66.2598 9.76562 -58.5938 L 9.76562 -11.7676 C 9.76562 -4.15039 13.6719 -0.292969 21.3867 -0.292969 Z M 21.4844 -5.71289 C 17.4316 -5.71289 15.1855 -7.86133 15.1855 -12.0605 L 15.1855 -58.3008 C 15.1855 -62.5 17.4316 -64.6973 21.4844 -64.6973 L 67.8711 -64.6973 C 71.875 -64.6973 74.1699 -62.5 74.1699 -58.3008 L 74.1699 -12.0605 C 74.1699 -7.86133 71.875 -5.71289 67.8711 -5.71289 Z M 44.6777 -15.4785 C 45.4102 -15.4785 46.0449 -15.7715 46.6797 -16.4062 L 59.9609 -29.6875 C 60.4492 -30.127 60.6934 -30.7617 60.6934 -31.4453 C 60.6934 -32.8125 59.6191 -33.8867 58.2031 -33.8867 C 57.4707 -33.8867 56.8848 -33.6426 56.3965 -33.1543 L 51.0742 -27.7344 L 46.9727 -23.0469 L 47.2168 -30.6152 L 47.2168 -52.3438 C 47.2168 -53.8086 46.1914 -54.8828 44.6777 -54.8828 C 43.2129 -54.8828 42.1387 -53.8086 42.1387 -52.3438 L 42.1387 -30.6152 L 42.3828 -23.0957 L 38.3789 -27.7344 L 33.0078 -33.1543 C 32.5195 -33.5938 31.9336 -33.8867 31.2012 -33.8867 C 29.7852 -33.8867 28.7109 -32.8125 28.7109 -31.4453 C 28.7109 -30.7617 28.9551 -30.127 29.3945 -29.6875 L 42.7246 -16.4062 C 43.4082 -15.7715 43.9453 -15.4785 44.6777 -15.4785 Z"/>
  </g>
  <g id="Thin-S" transform="matrix(1 0 0 1 812.599 696)">
   <path d="M 20.3125 -1.12305 L 67.334 -1.12305 C 74.2676 -1.12305 77.8809 -4.78516 77.8809 -11.6211 L 77.8809 -58.6914 C 77.8809 -65.5762 74.2676 -69.2383 67.334 -69.2383 L 20.3125 -69.2383 C 13.3789 -69.2383 9.76562 -65.625 9.76562 -58.6914 L 9.76562 -11.6211 C 9.76562 -4.6875 13.3789 -1.12305 20.3125 -1.12305 Z M 20.4102 -4.44336 C 15.625 -4.44336 13.0859 -6.93359 13.0859 -11.8164 L 13.0859 -58.5449 C 13.0859 -63.3789 15.625 -65.918 20.4102 -65.918 L 67.2363 -65.918 C 71.875 -65.918 74.5605 -63.3789 74.5605 -58.5449 L 74.5605 -11.8164 C 74.5605 -6.93359 71.875 -4.44336 67.2363 -4.44336 Z M 43.7988 -15.4297 C 44.2383 -15.4297 44.6289 -15.625 45.0195 -16.0156 L 59.3262 -30.3223 C 59.6191 -30.6152 59.8145 -30.957 59.8145 -31.4453 C 59.8145 -32.2754 59.1309 -32.9102 58.252 -32.9102 C 57.8125 -32.9102 57.4219 -32.7637 57.1289 -32.4219 L 49.9512 -25.1953 L 45.2637 -20.3125 L 45.4102 -26.416 L 45.4102 -53.2227 C 45.4102 -54.1992 44.7754 -54.834 43.7988 -54.834 C 42.8711 -54.834 42.1875 -54.1992 42.1875 -53.2227 L 42.1875 -26.416 L 42.3828 -20.3613 L 37.7441 -25.1953 L 30.5664 -32.4219 C 30.2246 -32.7148 29.8828 -32.9102 29.3945 -32.9102 C 28.5156 -32.9102 27.8809 -32.2754 27.8809 -31.4453 C 27.8809 -30.957 28.0273 -30.6152 28.3203 -30.3223 L 42.627 -16.0156 C 43.0176 -15.625 43.4082 -15.4297 43.7988 -15.4297 Z"/>
  </g>
  <g id="Ultralight-S" transform="matrix(1 0 0 1 516.352 696)">
   <path d="M 19.7754 -1.5625 L 66.9922 -1.5625 C 73.5352 -1.5625 76.9531 -5.12695 76.9531 -11.5234 L 76.9531 -58.7891 C 76.9531 -65.2344 73.5352 -68.75 66.9922 -68.75 L 19.7754 -68.75 C 13.2324 -68.75 9.76562 -65.2832 9.76562 -58.7891 L 9.76562 -11.5234 C 9.76562 -5.0293 13.2324 -1.5625 19.7754 -1.5625 Z M 19.873 -3.75977 C 14.6484 -3.75977 11.9629 -6.44531 11.9629 -11.6699 L 11.9629 -58.6426 C 11.9629 -63.8672 14.6484 -66.5527 19.873 -66.5527 L 66.8945 -66.5527 C 71.875 -66.5527 74.7559 -63.8672 74.7559 -58.6426 L 74.7559 -11.6699 C 74.7559 -6.44531 71.875 -3.75977 66.8945 -3.75977 Z M 43.3594 -15.4297 C 43.6523 -15.4297 43.8965 -15.5273 44.1406 -15.7715 L 59.0332 -30.6641 C 59.2285 -30.8594 59.3262 -31.0547 59.3262 -31.3965 C 59.3262 -31.9336 58.8867 -32.373 58.3008 -32.373 C 57.959 -32.373 57.7637 -32.2754 57.4707 -32.0312 L 49.3652 -23.877 L 44.3848 -18.9453 L 44.4824 -24.2188 L 44.4824 -53.7109 C 44.4824 -54.3945 44.043 -54.834 43.3594 -54.834 C 42.7246 -54.834 42.2363 -54.3945 42.2363 -53.7109 L 42.2363 -24.2188 L 42.334 -18.9941 L 37.4023 -23.877 L 29.2969 -32.0312 C 29.0527 -32.2754 28.8086 -32.373 28.4668 -32.373 C 27.8809 -32.373 27.4414 -31.9336 27.4414 -31.3965 C 27.4414 -31.0547 27.5391 -30.8594 27.7832 -30.6641 L 42.5781 -15.7715 C 42.8223 -15.5273 43.0664 -15.4297 43.3594 -15.4297 Z"/>
  </g>
 </g>
</svg>
